<mxfile host="65bd71144e" modified="2021-01-19T03:35:46.822Z" agent="5.0 (Macintosh; Intel Mac OS X 10_15_7) AppleWebKit/537.36 (KHTML, like Gecko) Code/1.52.1 Chrome/83.0.4103.122 Electron/9.3.5 Safari/537.36" version="13.10.0" etag="UPY-oTECyL7yqk7eSIBH" type="embed" pages="3">
    <diagram id="pcjH_bY8vA66FJ2-suJo" name="Page-3">
        <mxGraphModel dx="1006" dy="-1680" grid="1" gridSize="10" guides="1" tooltips="1" connect="1" arrows="1" fold="1" page="1" pageScale="1" pageWidth="850" pageHeight="1100" math="0" shadow="0">
            <root>
                <mxCell id="I9H_WrdOtYKVQSKxk7MN-0"/>
                <mxCell id="I9H_WrdOtYKVQSKxk7MN-1" parent="I9H_WrdOtYKVQSKxk7MN-0"/>
                <mxCell id="NP4W3550KS-GmCPFCmAq-0" value="Sprint 6 (80 hrs)" style="swimlane;fillColor=#FF66FF;" vertex="1" parent="I9H_WrdOtYKVQSKxk7MN-1">
                    <mxGeometry x="30" y="2220" width="720" height="330" as="geometry"/>
                </mxCell>
                <mxCell id="NP4W3550KS-GmCPFCmAq-1" value="7.1 Install Github Library (8 hr)" style="rounded=0;whiteSpace=wrap;html=1;fillColor=#FFFF99;" vertex="1" parent="NP4W3550KS-GmCPFCmAq-0">
                    <mxGeometry x="10" y="40" width="120" height="70" as="geometry"/>
                </mxCell>
                <mxCell id="NP4W3550KS-GmCPFCmAq-2" value="8.1 Install Github Library (8 hr)" style="rounded=0;whiteSpace=wrap;html=1;fillColor=#FF9999;" vertex="1" parent="NP4W3550KS-GmCPFCmAq-0">
                    <mxGeometry x="160" y="40" width="120" height="70" as="geometry"/>
                </mxCell>
                <mxCell id="NP4W3550KS-GmCPFCmAq-3" value="7.2 Configuration (20 hrs)" style="rounded=0;whiteSpace=wrap;html=1;fillColor=#FFFF99;" vertex="1" parent="NP4W3550KS-GmCPFCmAq-0">
                    <mxGeometry x="10" y="140" width="120" height="70" as="geometry"/>
                </mxCell>
                <mxCell id="NP4W3550KS-GmCPFCmAq-4" value="8.2 Configuration (20 hrs)" style="rounded=0;whiteSpace=wrap;html=1;fillColor=#FF9999;" vertex="1" parent="NP4W3550KS-GmCPFCmAq-0">
                    <mxGeometry x="160" y="140" width="120" height="70" as="geometry"/>
                </mxCell>
                <mxCell id="NP4W3550KS-GmCPFCmAq-5" value="8.3 Deployment (12 hrs)" style="rounded=0;whiteSpace=wrap;html=1;fillColor=#FF9999;" vertex="1" parent="NP4W3550KS-GmCPFCmAq-0">
                    <mxGeometry x="160" y="240" width="120" height="70" as="geometry"/>
                </mxCell>
                <mxCell id="NP4W3550KS-GmCPFCmAq-6" value="7.3 Deployment (12 hrs)" style="rounded=0;whiteSpace=wrap;html=1;fillColor=#FFFF99;" vertex="1" parent="NP4W3550KS-GmCPFCmAq-0">
                    <mxGeometry x="10" y="240" width="120" height="70" as="geometry"/>
                </mxCell>
                <mxCell id="NP4W3550KS-GmCPFCmAq-7" style="edgeStyle=orthogonalEdgeStyle;rounded=0;orthogonalLoop=1;jettySize=auto;html=1;exitX=0.5;exitY=1;exitDx=0;exitDy=0;entryX=0.5;entryY=0;entryDx=0;entryDy=0;" edge="1" parent="NP4W3550KS-GmCPFCmAq-0" source="NP4W3550KS-GmCPFCmAq-1" target="NP4W3550KS-GmCPFCmAq-3">
                    <mxGeometry relative="1" as="geometry"/>
                </mxCell>
                <mxCell id="NP4W3550KS-GmCPFCmAq-8" style="edgeStyle=orthogonalEdgeStyle;rounded=0;orthogonalLoop=1;jettySize=auto;html=1;exitX=0.5;exitY=1;exitDx=0;exitDy=0;entryX=0.5;entryY=0;entryDx=0;entryDy=0;" edge="1" parent="NP4W3550KS-GmCPFCmAq-0" source="NP4W3550KS-GmCPFCmAq-2" target="NP4W3550KS-GmCPFCmAq-4">
                    <mxGeometry relative="1" as="geometry"/>
                </mxCell>
                <mxCell id="NP4W3550KS-GmCPFCmAq-9" style="edgeStyle=orthogonalEdgeStyle;rounded=0;orthogonalLoop=1;jettySize=auto;html=1;exitX=0.5;exitY=1;exitDx=0;exitDy=0;entryX=0.5;entryY=0;entryDx=0;entryDy=0;" edge="1" parent="NP4W3550KS-GmCPFCmAq-0" source="NP4W3550KS-GmCPFCmAq-4" target="NP4W3550KS-GmCPFCmAq-5">
                    <mxGeometry relative="1" as="geometry"/>
                </mxCell>
                <mxCell id="NP4W3550KS-GmCPFCmAq-10" style="edgeStyle=orthogonalEdgeStyle;rounded=0;orthogonalLoop=1;jettySize=auto;html=1;exitX=0.5;exitY=1;exitDx=0;exitDy=0;entryX=0.5;entryY=0;entryDx=0;entryDy=0;" edge="1" parent="NP4W3550KS-GmCPFCmAq-0" source="NP4W3550KS-GmCPFCmAq-3" target="NP4W3550KS-GmCPFCmAq-6">
                    <mxGeometry relative="1" as="geometry"/>
                </mxCell>
                <mxCell id="NP4W3550KS-GmCPFCmAq-11" style="edgeStyle=orthogonalEdgeStyle;rounded=0;orthogonalLoop=1;jettySize=auto;html=1;exitX=0.5;exitY=1;exitDx=0;exitDy=0;" edge="1" parent="I9H_WrdOtYKVQSKxk7MN-1" source="NP4W3550KS-GmCPFCmAq-12">
                    <mxGeometry relative="1" as="geometry">
                        <mxPoint x="99.5294117647054" y="2680" as="targetPoint"/>
                    </mxGeometry>
                </mxCell>
                <mxCell id="NP4W3550KS-GmCPFCmAq-12" value="9.1 Documentation (24 hrs)" style="rounded=0;whiteSpace=wrap;html=1;fillColor=#FF9999;" vertex="1" parent="I9H_WrdOtYKVQSKxk7MN-1">
                    <mxGeometry x="40" y="2580" width="120" height="70" as="geometry"/>
                </mxCell>
                <mxCell id="NP4W3550KS-GmCPFCmAq-13" value="9.2 Deployment (18 hrs)" style="rounded=0;whiteSpace=wrap;html=1;fillColor=#FF9999;" vertex="1" parent="I9H_WrdOtYKVQSKxk7MN-1">
                    <mxGeometry x="40" y="2680" width="120" height="70" as="geometry"/>
                </mxCell>
                <mxCell id="NP4W3550KS-GmCPFCmAq-14" value="Sprint 7 (40 hrs)" style="swimlane;fillColor=#FF66FF;" vertex="1" parent="I9H_WrdOtYKVQSKxk7MN-1">
                    <mxGeometry x="30" y="2550" width="720" height="240" as="geometry"/>
                </mxCell>
            </root>
        </mxGraphModel>
    </diagram>
    <diagram id="YUCi5Yy0qw8zY7Bc9aFu" name="Page-2">
        <mxGraphModel dx="1006" dy="-580" grid="1" gridSize="10" guides="1" tooltips="1" connect="1" arrows="1" fold="1" page="1" pageScale="1" pageWidth="850" pageHeight="1100" math="0" shadow="0">
            <root>
                <mxCell id="eK43pm64guXxSvKWGiJt-0"/>
                <mxCell id="eK43pm64guXxSvKWGiJt-1" parent="eK43pm64guXxSvKWGiJt-0"/>
                <mxCell id="q_j0dM8HgkzhS9TGO93l-0" style="edgeStyle=orthogonalEdgeStyle;rounded=0;orthogonalLoop=1;jettySize=auto;html=1;exitX=0.5;exitY=1;exitDx=0;exitDy=0;entryX=0;entryY=0.5;entryDx=0;entryDy=0;" edge="1" parent="eK43pm64guXxSvKWGiJt-1" source="q_j0dM8HgkzhS9TGO93l-1" target="q_j0dM8HgkzhS9TGO93l-16">
                    <mxGeometry relative="1" as="geometry"/>
                </mxCell>
                <mxCell id="q_j0dM8HgkzhS9TGO93l-1" value="5.2 Implement an interface for a researcher to provide feedback (6 hrs)" style="rounded=0;whiteSpace=wrap;html=1;fillColor=#FF66B3;" vertex="1" parent="eK43pm64guXxSvKWGiJt-1">
                    <mxGeometry x="190" y="1540" width="120" height="60" as="geometry"/>
                </mxCell>
                <mxCell id="q_j0dM8HgkzhS9TGO93l-2" value="4.2 Design/Implement Interface to enter Nutrition Activity (4 hrs)" style="rounded=0;whiteSpace=wrap;html=1;fillColor=#FF66FF;" vertex="1" parent="eK43pm64guXxSvKWGiJt-1">
                    <mxGeometry x="330" y="1210" width="120" height="60" as="geometry"/>
                </mxCell>
                <mxCell id="q_j0dM8HgkzhS9TGO93l-3" value="4.6 Design/Implement Interface to modify Nutrition Activity (4 hrs)" style="rounded=0;whiteSpace=wrap;html=1;fillColor=#FF66FF;" vertex="1" parent="eK43pm64guXxSvKWGiJt-1">
                    <mxGeometry x="470" y="1210" width="120" height="60" as="geometry"/>
                </mxCell>
                <mxCell id="q_j0dM8HgkzhS9TGO93l-4" value="4.9 Design/Implement Interface to modify Running Activity (4 hrs)" style="rounded=0;whiteSpace=wrap;html=1;fillColor=#FF66FF;" vertex="1" parent="eK43pm64guXxSvKWGiJt-1">
                    <mxGeometry x="610" y="1210" width="120" height="60" as="geometry"/>
                </mxCell>
                <mxCell id="q_j0dM8HgkzhS9TGO93l-5" style="edgeStyle=orthogonalEdgeStyle;rounded=0;orthogonalLoop=1;jettySize=auto;html=1;exitX=0.5;exitY=1;exitDx=0;exitDy=0;entryX=0.5;entryY=0;entryDx=0;entryDy=0;" edge="1" parent="eK43pm64guXxSvKWGiJt-1" source="q_j0dM8HgkzhS9TGO93l-6" target="q_j0dM8HgkzhS9TGO93l-8">
                    <mxGeometry relative="1" as="geometry"/>
                </mxCell>
                <mxCell id="q_j0dM8HgkzhS9TGO93l-6" value="4.13&lt;br&gt;Create Wellness Activity API Calls (8 hrs)" style="rounded=0;whiteSpace=wrap;html=1;fillColor=#FF66FF;" vertex="1" parent="eK43pm64guXxSvKWGiJt-1">
                    <mxGeometry x="50" y="1290" width="120" height="60" as="geometry"/>
                </mxCell>
                <mxCell id="q_j0dM8HgkzhS9TGO93l-7" style="edgeStyle=orthogonalEdgeStyle;rounded=0;orthogonalLoop=1;jettySize=auto;html=1;exitX=0.5;exitY=1;exitDx=0;exitDy=0;entryX=0.5;entryY=0;entryDx=0;entryDy=0;" edge="1" parent="eK43pm64guXxSvKWGiJt-1" source="q_j0dM8HgkzhS9TGO93l-8" target="q_j0dM8HgkzhS9TGO93l-9">
                    <mxGeometry relative="1" as="geometry"/>
                </mxCell>
                <mxCell id="q_j0dM8HgkzhS9TGO93l-8" value="4.14&lt;br&gt;Create Database Model (8 hrs)" style="rounded=0;whiteSpace=wrap;html=1;fillColor=#FF66FF;" vertex="1" parent="eK43pm64guXxSvKWGiJt-1">
                    <mxGeometry x="50" y="1370" width="120" height="60" as="geometry"/>
                </mxCell>
                <mxCell id="q_j0dM8HgkzhS9TGO93l-9" value="4.15&lt;br&gt;Create Database Migrations (4 hrs)" style="rounded=0;whiteSpace=wrap;html=1;fillColor=#FF66FF;" vertex="1" parent="eK43pm64guXxSvKWGiJt-1">
                    <mxGeometry x="50" y="1450" width="120" height="60" as="geometry"/>
                </mxCell>
                <mxCell id="q_j0dM8HgkzhS9TGO93l-10" value="Sprint 4 (74 hrs)" style="swimlane;fillColor=#FF66FF;" vertex="1" parent="eK43pm64guXxSvKWGiJt-1">
                    <mxGeometry x="30" y="1160" width="720" height="510" as="geometry"/>
                </mxCell>
                <mxCell id="q_j0dM8HgkzhS9TGO93l-11" style="edgeStyle=orthogonalEdgeStyle;rounded=0;orthogonalLoop=1;jettySize=auto;html=1;exitX=0.5;exitY=1;exitDx=0;exitDy=0;entryX=0.5;entryY=0;entryDx=0;entryDy=0;" edge="1" parent="q_j0dM8HgkzhS9TGO93l-10" source="q_j0dM8HgkzhS9TGO93l-12" target="q_j0dM8HgkzhS9TGO93l-14">
                    <mxGeometry relative="1" as="geometry"/>
                </mxCell>
                <mxCell id="q_j0dM8HgkzhS9TGO93l-12" value="3.9 Researcher Create Database Migrations (4 hrs)" style="rounded=0;whiteSpace=wrap;html=1;fillColor=#9999FF;" vertex="1" parent="q_j0dM8HgkzhS9TGO93l-10">
                    <mxGeometry x="160" y="130" width="120" height="60" as="geometry"/>
                </mxCell>
                <mxCell id="q_j0dM8HgkzhS9TGO93l-13" style="edgeStyle=orthogonalEdgeStyle;rounded=0;orthogonalLoop=1;jettySize=auto;html=1;exitX=0.5;exitY=1;exitDx=0;exitDy=0;entryX=0.5;entryY=0;entryDx=0;entryDy=0;" edge="1" parent="q_j0dM8HgkzhS9TGO93l-10" source="q_j0dM8HgkzhS9TGO93l-14" target="q_j0dM8HgkzhS9TGO93l-15">
                    <mxGeometry relative="1" as="geometry"/>
                </mxCell>
                <mxCell id="q_j0dM8HgkzhS9TGO93l-14" value="5.0 Design/Implement Interface to display Wellness Activity for Researcher (6 hrs)" style="rounded=0;whiteSpace=wrap;html=1;fillColor=#FF66B3;" vertex="1" parent="q_j0dM8HgkzhS9TGO93l-10">
                    <mxGeometry x="160" y="210" width="120" height="60" as="geometry"/>
                </mxCell>
                <mxCell id="q_j0dM8HgkzhS9TGO93l-15" value="5.1 Design an interface for a researcher to provide feedback (3 hrs)" style="rounded=0;whiteSpace=wrap;html=1;fillColor=#FF66B3;" vertex="1" parent="q_j0dM8HgkzhS9TGO93l-10">
                    <mxGeometry x="160" y="290" width="120" height="60" as="geometry"/>
                </mxCell>
                <mxCell id="q_j0dM8HgkzhS9TGO93l-16" value="5.3 Design an interface for a user to view feedback (3 hrs)" style="rounded=0;whiteSpace=wrap;html=1;fillColor=#FF66B3;" vertex="1" parent="q_j0dM8HgkzhS9TGO93l-10">
                    <mxGeometry x="320" y="210" width="120" height="60" as="geometry"/>
                </mxCell>
                <mxCell id="q_j0dM8HgkzhS9TGO93l-17" style="edgeStyle=orthogonalEdgeStyle;rounded=0;orthogonalLoop=1;jettySize=auto;html=1;exitX=0.5;exitY=1;exitDx=0;exitDy=0;entryX=0.5;entryY=0;entryDx=0;entryDy=0;" edge="1" parent="q_j0dM8HgkzhS9TGO93l-10" source="q_j0dM8HgkzhS9TGO93l-18" target="q_j0dM8HgkzhS9TGO93l-21">
                    <mxGeometry relative="1" as="geometry"/>
                </mxCell>
                <mxCell id="q_j0dM8HgkzhS9TGO93l-18" value="5.4 Implement an interface for a user to acknowledge feedback (3 hrs)" style="rounded=0;whiteSpace=wrap;html=1;fillColor=#FF66B3;" vertex="1" parent="q_j0dM8HgkzhS9TGO93l-10">
                    <mxGeometry x="320" y="290" width="120" height="60" as="geometry"/>
                </mxCell>
                <mxCell id="q_j0dM8HgkzhS9TGO93l-19" style="edgeStyle=orthogonalEdgeStyle;rounded=0;orthogonalLoop=1;jettySize=auto;html=1;exitX=0.5;exitY=1;exitDx=0;exitDy=0;entryX=0.5;entryY=0;entryDx=0;entryDy=0;" edge="1" parent="q_j0dM8HgkzhS9TGO93l-10" source="q_j0dM8HgkzhS9TGO93l-16" target="q_j0dM8HgkzhS9TGO93l-18">
                    <mxGeometry relative="1" as="geometry"/>
                </mxCell>
                <mxCell id="q_j0dM8HgkzhS9TGO93l-20" style="edgeStyle=orthogonalEdgeStyle;rounded=0;orthogonalLoop=1;jettySize=auto;html=1;exitX=0.5;exitY=1;exitDx=0;exitDy=0;entryX=0.5;entryY=0;entryDx=0;entryDy=0;" edge="1" parent="q_j0dM8HgkzhS9TGO93l-10" source="q_j0dM8HgkzhS9TGO93l-21" target="q_j0dM8HgkzhS9TGO93l-23">
                    <mxGeometry relative="1" as="geometry"/>
                </mxCell>
                <mxCell id="q_j0dM8HgkzhS9TGO93l-21" value="5.5 Create API Calls to handle the interaction between user and researcher (8 hrs)" style="rounded=0;whiteSpace=wrap;html=1;fillColor=#FF66B3;" vertex="1" parent="q_j0dM8HgkzhS9TGO93l-10">
                    <mxGeometry x="320" y="380" width="120" height="70" as="geometry"/>
                </mxCell>
                <mxCell id="q_j0dM8HgkzhS9TGO93l-22" style="edgeStyle=orthogonalEdgeStyle;rounded=0;orthogonalLoop=1;jettySize=auto;html=1;exitX=0.5;exitY=1;exitDx=0;exitDy=0;entryX=0.5;entryY=0;entryDx=0;entryDy=0;" edge="1" parent="q_j0dM8HgkzhS9TGO93l-10" source="q_j0dM8HgkzhS9TGO93l-23" target="q_j0dM8HgkzhS9TGO93l-24">
                    <mxGeometry relative="1" as="geometry"/>
                </mxCell>
                <mxCell id="q_j0dM8HgkzhS9TGO93l-23" value="5.6 Create Database Model (4 hrs)" style="rounded=0;whiteSpace=wrap;html=1;fillColor=#FF66B3;" vertex="1" parent="q_j0dM8HgkzhS9TGO93l-10">
                    <mxGeometry x="480" y="160" width="120" height="70" as="geometry"/>
                </mxCell>
                <mxCell id="q_j0dM8HgkzhS9TGO93l-24" value="5.7 Create Database Migrations (4 hrs)" style="rounded=0;whiteSpace=wrap;html=1;fillColor=#FF66B3;" vertex="1" parent="q_j0dM8HgkzhS9TGO93l-10">
                    <mxGeometry x="480" y="290" width="120" height="70" as="geometry"/>
                </mxCell>
                <mxCell id="q_j0dM8HgkzhS9TGO93l-25" value="4.3 Design/Implement Interface to modify Nutrition Activity (4 hrs)" style="rounded=0;whiteSpace=wrap;html=1;fillColor=#FF66FF;" vertex="1" parent="q_j0dM8HgkzhS9TGO93l-10">
                    <mxGeometry x="320" y="130" width="120" height="60" as="geometry"/>
                </mxCell>
                <mxCell id="q_j0dM8HgkzhS9TGO93l-26" style="edgeStyle=orthogonalEdgeStyle;rounded=0;orthogonalLoop=1;jettySize=auto;html=1;exitX=0.5;exitY=1;exitDx=0;exitDy=0;entryX=0.5;entryY=0;entryDx=0;entryDy=0;" edge="1" parent="eK43pm64guXxSvKWGiJt-1" source="q_j0dM8HgkzhS9TGO93l-15" target="q_j0dM8HgkzhS9TGO93l-1">
                    <mxGeometry relative="1" as="geometry"/>
                </mxCell>
                <mxCell id="q_j0dM8HgkzhS9TGO93l-27" style="edgeStyle=orthogonalEdgeStyle;rounded=0;orthogonalLoop=1;jettySize=auto;html=1;exitX=0.5;exitY=1;exitDx=0;exitDy=0;entryX=0.5;entryY=0;entryDx=0;entryDy=0;" edge="1" parent="eK43pm64guXxSvKWGiJt-1" source="q_j0dM8HgkzhS9TGO93l-2" target="q_j0dM8HgkzhS9TGO93l-25">
                    <mxGeometry relative="1" as="geometry"/>
                </mxCell>
                <mxCell id="q_j0dM8HgkzhS9TGO93l-28" value="Sprint 5 (56 hrs)" style="swimlane;fillColor=#FF66FF;" vertex="1" parent="eK43pm64guXxSvKWGiJt-1">
                    <mxGeometry x="30" y="1690" width="720" height="330" as="geometry"/>
                </mxCell>
                <mxCell id="q_j0dM8HgkzhS9TGO93l-29" style="edgeStyle=orthogonalEdgeStyle;rounded=0;orthogonalLoop=1;jettySize=auto;html=1;exitX=1;exitY=0.5;exitDx=0;exitDy=0;entryX=0;entryY=0.5;entryDx=0;entryDy=0;" edge="1" parent="q_j0dM8HgkzhS9TGO93l-28" source="q_j0dM8HgkzhS9TGO93l-30" target="q_j0dM8HgkzhS9TGO93l-34">
                    <mxGeometry relative="1" as="geometry">
                        <Array as="points">
                            <mxPoint x="150" y="265"/>
                            <mxPoint x="150" y="65"/>
                        </Array>
                    </mxGeometry>
                </mxCell>
                <mxCell id="q_j0dM8HgkzhS9TGO93l-30" value="6.3 Upload Data Periodically Widget (12 hrs)" style="rounded=0;whiteSpace=wrap;html=1;fillColor=#FFCC99;" vertex="1" parent="q_j0dM8HgkzhS9TGO93l-28">
                    <mxGeometry x="20" y="230" width="120" height="70" as="geometry"/>
                </mxCell>
                <mxCell id="q_j0dM8HgkzhS9TGO93l-31" style="edgeStyle=orthogonalEdgeStyle;rounded=0;orthogonalLoop=1;jettySize=auto;html=1;exitX=0.5;exitY=1;exitDx=0;exitDy=0;entryX=0.5;entryY=0;entryDx=0;entryDy=0;" edge="1" parent="q_j0dM8HgkzhS9TGO93l-28" source="q_j0dM8HgkzhS9TGO93l-32" target="q_j0dM8HgkzhS9TGO93l-36">
                    <mxGeometry relative="1" as="geometry"/>
                </mxCell>
                <mxCell id="q_j0dM8HgkzhS9TGO93l-32" value="6.1 Application Project Description (12 hrs)" style="rounded=0;whiteSpace=wrap;html=1;fillColor=#FFCC99;" vertex="1" parent="q_j0dM8HgkzhS9TGO93l-28">
                    <mxGeometry x="20" y="30" width="120" height="70" as="geometry"/>
                </mxCell>
                <mxCell id="q_j0dM8HgkzhS9TGO93l-33" style="edgeStyle=orthogonalEdgeStyle;rounded=0;orthogonalLoop=1;jettySize=auto;html=1;exitX=0.5;exitY=1;exitDx=0;exitDy=0;entryX=0.5;entryY=0;entryDx=0;entryDy=0;" edge="1" parent="q_j0dM8HgkzhS9TGO93l-28" source="q_j0dM8HgkzhS9TGO93l-34" target="q_j0dM8HgkzhS9TGO93l-37">
                    <mxGeometry relative="1" as="geometry"/>
                </mxCell>
                <mxCell id="q_j0dM8HgkzhS9TGO93l-34" value="6.4 Upload Data Periodically API Call (12 hrs)" style="rounded=0;whiteSpace=wrap;html=1;fillColor=#FFCC99;" vertex="1" parent="q_j0dM8HgkzhS9TGO93l-28">
                    <mxGeometry x="170" y="30" width="120" height="70" as="geometry"/>
                </mxCell>
                <mxCell id="q_j0dM8HgkzhS9TGO93l-35" style="edgeStyle=orthogonalEdgeStyle;rounded=0;orthogonalLoop=1;jettySize=auto;html=1;exitX=0.5;exitY=1;exitDx=0;exitDy=0;entryX=0.5;entryY=0;entryDx=0;entryDy=0;" edge="1" parent="q_j0dM8HgkzhS9TGO93l-28" source="q_j0dM8HgkzhS9TGO93l-36" target="q_j0dM8HgkzhS9TGO93l-30">
                    <mxGeometry relative="1" as="geometry"/>
                </mxCell>
                <mxCell id="q_j0dM8HgkzhS9TGO93l-36" value="6.2 Consent Form (8 hrs)" style="rounded=0;whiteSpace=wrap;html=1;fillColor=#FFCC99;" vertex="1" parent="q_j0dM8HgkzhS9TGO93l-28">
                    <mxGeometry x="20" y="130" width="120" height="70" as="geometry"/>
                </mxCell>
                <mxCell id="q_j0dM8HgkzhS9TGO93l-37" value="6.5 Upload Data Periodically Backend Endpoint DB Store (12 hrs)" style="rounded=0;whiteSpace=wrap;html=1;fillColor=#FFCC99;" vertex="1" parent="q_j0dM8HgkzhS9TGO93l-28">
                    <mxGeometry x="170" y="130" width="120" height="70" as="geometry"/>
                </mxCell>
            </root>
        </mxGraphModel>
    </diagram>
    <diagram id="C7lNMHNWuuSBNu4C1kYQ" name="Page-1">
        <mxGraphModel dx="2515" dy="1300" grid="1" gridSize="10" guides="1" tooltips="1" connect="1" arrows="1" fold="1" page="1" pageScale="1" pageWidth="850" pageHeight="1100" math="0" shadow="0">
            <root>
                <mxCell id="0"/>
                <mxCell id="1" parent="0"/>
                <mxCell id="67" style="edgeStyle=orthogonalEdgeStyle;rounded=0;orthogonalLoop=1;jettySize=auto;html=1;exitX=0.5;exitY=1;exitDx=0;exitDy=0;entryX=0.5;entryY=0;entryDx=0;entryDy=0;" edge="1" parent="1" source="2" target="3">
                    <mxGeometry relative="1" as="geometry"/>
                </mxCell>
                <mxCell id="2" value="1.0 Implement Researcher Signup Page (4 hrs)" style="rounded=0;whiteSpace=wrap;html=1;fillColor=#99FFCC;" vertex="1" parent="1">
                    <mxGeometry x="40" y="40" width="120" height="60" as="geometry"/>
                </mxCell>
                <mxCell id="3" value="1.1 Implement User Signup Page (4 hrs)" style="rounded=0;whiteSpace=wrap;html=1;fillColor=#99FFCC;" vertex="1" parent="1">
                    <mxGeometry x="40" y="140" width="120" height="60" as="geometry"/>
                </mxCell>
                <mxCell id="68" style="edgeStyle=orthogonalEdgeStyle;rounded=0;orthogonalLoop=1;jettySize=auto;html=1;exitX=0.5;exitY=1;exitDx=0;exitDy=0;entryX=0.5;entryY=0;entryDx=0;entryDy=0;" edge="1" parent="1" source="4" target="5">
                    <mxGeometry relative="1" as="geometry"/>
                </mxCell>
                <mxCell id="4" value="1.2 Design Login Page (4 hrs)" style="rounded=0;whiteSpace=wrap;html=1;fillColor=#99FFCC;" vertex="1" parent="1">
                    <mxGeometry x="180" y="40" width="120" height="60" as="geometry"/>
                </mxCell>
                <mxCell id="5" value="1.3 Login Page (3 hrs)" style="rounded=0;whiteSpace=wrap;html=1;fillColor=#99FFCC;" vertex="1" parent="1">
                    <mxGeometry x="180" y="140" width="120" height="60" as="geometry"/>
                </mxCell>
                <mxCell id="69" style="edgeStyle=orthogonalEdgeStyle;rounded=0;orthogonalLoop=1;jettySize=auto;html=1;exitX=0.5;exitY=1;exitDx=0;exitDy=0;entryX=0.5;entryY=0;entryDx=0;entryDy=0;" edge="1" parent="1" source="6" target="7">
                    <mxGeometry relative="1" as="geometry"/>
                </mxCell>
                <mxCell id="6" value="1.4 Create Design for Profile Page for the User (4 hrs)" style="rounded=0;whiteSpace=wrap;html=1;fillColor=#99FFCC;" vertex="1" parent="1">
                    <mxGeometry x="320" y="40" width="120" height="60" as="geometry"/>
                </mxCell>
                <mxCell id="7" value="1.5 Implement Profile Page for the User (4 hrs)" style="rounded=0;whiteSpace=wrap;html=1;fillColor=#99FFCC;" vertex="1" parent="1">
                    <mxGeometry x="320" y="140" width="120" height="60" as="geometry"/>
                </mxCell>
                <mxCell id="70" style="edgeStyle=orthogonalEdgeStyle;rounded=0;orthogonalLoop=1;jettySize=auto;html=1;exitX=0.5;exitY=1;exitDx=0;exitDy=0;entryX=0.5;entryY=0;entryDx=0;entryDy=0;" edge="1" parent="1" source="8" target="9">
                    <mxGeometry relative="1" as="geometry"/>
                </mxCell>
                <mxCell id="8" value="1.6 Create Design for Landing Page (4 hrs)" style="rounded=0;whiteSpace=wrap;html=1;fillColor=#99FFCC;" vertex="1" parent="1">
                    <mxGeometry x="460" y="40" width="120" height="60" as="geometry"/>
                </mxCell>
                <mxCell id="9" value="1.7 Implement Design for Dashboard Page(4 hrs)" style="rounded=0;whiteSpace=wrap;html=1;fillColor=#99FFCC;" vertex="1" parent="1">
                    <mxGeometry x="460" y="140" width="120" height="60" as="geometry"/>
                </mxCell>
                <mxCell id="10" value="1.8 Implement Design for Personal Data to be displayed (4 hrs)" style="rounded=0;whiteSpace=wrap;html=1;fillColor=#99FFCC;" vertex="1" parent="1">
                    <mxGeometry x="600" y="40" width="120" height="60" as="geometry"/>
                </mxCell>
                <mxCell id="71" style="edgeStyle=orthogonalEdgeStyle;rounded=0;orthogonalLoop=1;jettySize=auto;html=1;exitX=0.5;exitY=1;exitDx=0;exitDy=0;" edge="1" parent="1" source="11" target="12">
                    <mxGeometry relative="1" as="geometry"/>
                </mxCell>
                <mxCell id="11" value="1.9 Design about Page (4 hrs)" style="rounded=0;whiteSpace=wrap;html=1;fillColor=#99FFCC;" vertex="1" parent="1">
                    <mxGeometry x="40" y="240" width="120" height="60" as="geometry"/>
                </mxCell>
                <mxCell id="12" value="1.10 Implement Design for About Page (2 hrs)" style="rounded=0;whiteSpace=wrap;html=1;fillColor=#99FFCC;" vertex="1" parent="1">
                    <mxGeometry x="40" y="340" width="120" height="60" as="geometry"/>
                </mxCell>
                <mxCell id="72" style="edgeStyle=orthogonalEdgeStyle;rounded=0;orthogonalLoop=1;jettySize=auto;html=1;exitX=0.5;exitY=1;exitDx=0;exitDy=0;entryX=0.5;entryY=0;entryDx=0;entryDy=0;" edge="1" parent="1" source="13" target="14">
                    <mxGeometry relative="1" as="geometry"/>
                </mxCell>
                <mxCell id="13" value="1.11 Create Design for Navigation Menu (8 hrs)" style="rounded=0;whiteSpace=wrap;html=1;fillColor=#99FFCC;" vertex="1" parent="1">
                    <mxGeometry x="180" y="240" width="120" height="60" as="geometry"/>
                </mxCell>
                <mxCell id="73" style="edgeStyle=orthogonalEdgeStyle;rounded=0;orthogonalLoop=1;jettySize=auto;html=1;exitX=0.5;exitY=1;exitDx=0;exitDy=0;entryX=0.5;entryY=0;entryDx=0;entryDy=0;" edge="1" parent="1" source="14" target="15">
                    <mxGeometry relative="1" as="geometry"/>
                </mxCell>
                <mxCell id="14" value="1.12 Implement Design for Navigation (4 hrs)" style="rounded=0;whiteSpace=wrap;html=1;fillColor=#99FFCC;" vertex="1" parent="1">
                    <mxGeometry x="180" y="340" width="120" height="60" as="geometry"/>
                </mxCell>
                <mxCell id="74" style="edgeStyle=orthogonalEdgeStyle;rounded=0;orthogonalLoop=1;jettySize=auto;html=1;exitX=0.5;exitY=1;exitDx=0;exitDy=0;entryX=0.5;entryY=0;entryDx=0;entryDy=0;" edge="1" parent="1" source="16" target="17">
                    <mxGeometry relative="1" as="geometry"/>
                </mxCell>
                <mxCell id="16" value="2.0 Participant Study Project Description&lt;br&gt;(4 hrs)" style="rounded=0;whiteSpace=wrap;html=1;fillColor=#66FFFF;" vertex="1" parent="1">
                    <mxGeometry x="320" y="240" width="120" height="60" as="geometry"/>
                </mxCell>
                <mxCell id="75" style="edgeStyle=orthogonalEdgeStyle;rounded=0;orthogonalLoop=1;jettySize=auto;html=1;exitX=0.5;exitY=1;exitDx=0;exitDy=0;entryX=0.5;entryY=0;entryDx=0;entryDy=0;" edge="1" parent="1" source="17" target="18">
                    <mxGeometry relative="1" as="geometry"/>
                </mxCell>
                <mxCell id="17" value="2.1 Participant Agree Consent Form (8 hrs)" style="rounded=0;whiteSpace=wrap;html=1;fillColor=#66FFFF;" vertex="1" parent="1">
                    <mxGeometry x="320" y="340" width="120" height="60" as="geometry"/>
                </mxCell>
                <mxCell id="79" value="Sprint 1 (67 hrs / 4 people)" style="swimlane;fillColor=#FF9999;" vertex="1" parent="1">
                    <mxGeometry x="30" y="10" width="720" height="410" as="geometry"/>
                </mxCell>
                <mxCell id="89" value="Sprint 2 (68 hrs / 4 people)" style="swimlane;fillColor=#FF9999;" vertex="1" parent="1">
                    <mxGeometry x="30" y="420" width="720" height="400" as="geometry"/>
                </mxCell>
                <mxCell id="22" value="3.0 Researcher Study Project Description (8 hrs)" style="rounded=0;whiteSpace=wrap;html=1;fillColor=#9999FF;" vertex="1" parent="89">
                    <mxGeometry x="10" y="40" width="120" height="60" as="geometry"/>
                </mxCell>
                <mxCell id="15" value="1.13 Create API Calls (8 hrs)" style="rounded=0;whiteSpace=wrap;html=1;fillColor=#99FFCC;" vertex="1" parent="89">
                    <mxGeometry x="160" y="40" width="120" height="60" as="geometry"/>
                </mxCell>
                <mxCell id="18" value="2.2 Participant Answer Demographic Questions (8 hrs)" style="rounded=0;whiteSpace=wrap;html=1;fillColor=#66FFFF;" vertex="1" parent="89">
                    <mxGeometry x="300" y="40" width="120" height="60" as="geometry"/>
                </mxCell>
                <mxCell id="19" value="2.3 Participant Answer Survey (16 hrs)" style="rounded=0;whiteSpace=wrap;html=1;fillColor=#66FFFF;" vertex="1" parent="89">
                    <mxGeometry x="300" y="135" width="120" height="60" as="geometry"/>
                </mxCell>
                <mxCell id="28" value="3.4 Researcher Survey API Call (12 hrs)" style="rounded=0;whiteSpace=wrap;html=1;fillColor=#9999FF;" vertex="1" parent="89">
                    <mxGeometry x="160" y="135" width="120" height="60" as="geometry"/>
                </mxCell>
                <mxCell id="23" value="3.1 Researcher Agree Consent Form (4 hrs)" style="rounded=0;whiteSpace=wrap;html=1;fillColor=#9999FF;" vertex="1" parent="89">
                    <mxGeometry x="10" y="135" width="120" height="60" as="geometry"/>
                </mxCell>
                <mxCell id="24" value="3.2 Researcher Answer Demographic Questions (12 hrs)" style="rounded=0;whiteSpace=wrap;html=1;fillColor=#9999FF;" vertex="1" parent="89">
                    <mxGeometry x="10" y="225" width="120" height="60" as="geometry"/>
                </mxCell>
                <mxCell id="27" value="3.5 Researcher Survey Backend Endpoint + DB Store (12 hrs)" style="rounded=0;whiteSpace=wrap;html=1;fillColor=#9999FF;" vertex="1" parent="89">
                    <mxGeometry x="160" y="225" width="120" height="60" as="geometry"/>
                </mxCell>
                <mxCell id="20" value="2.4 Participant Thank You (4 hrs)" style="rounded=0;whiteSpace=wrap;html=1;fillColor=#66FFFF;" vertex="1" parent="89">
                    <mxGeometry x="300" y="230" width="120" height="60" as="geometry"/>
                </mxCell>
                <mxCell id="25" value="2.3 Researcher Answer Survey (12 hrs)" style="rounded=0;whiteSpace=wrap;html=1;fillColor=#9999FF;" vertex="1" parent="89">
                    <mxGeometry x="10" y="330" width="120" height="50" as="geometry"/>
                </mxCell>
                <mxCell id="76" style="edgeStyle=orthogonalEdgeStyle;rounded=0;orthogonalLoop=1;jettySize=auto;html=1;exitX=0.5;exitY=1;exitDx=0;exitDy=0;entryX=0.5;entryY=0;entryDx=0;entryDy=0;" edge="1" parent="89" source="18" target="19">
                    <mxGeometry relative="1" as="geometry">
                        <mxPoint x="349.52941176470586" y="110" as="targetPoint"/>
                    </mxGeometry>
                </mxCell>
                <mxCell id="80" style="edgeStyle=orthogonalEdgeStyle;rounded=0;orthogonalLoop=1;jettySize=auto;html=1;exitX=0.5;exitY=1;exitDx=0;exitDy=0;entryX=0.5;entryY=0;entryDx=0;entryDy=0;" edge="1" parent="89" source="22" target="23">
                    <mxGeometry relative="1" as="geometry"/>
                </mxCell>
                <mxCell id="81" style="edgeStyle=orthogonalEdgeStyle;rounded=0;orthogonalLoop=1;jettySize=auto;html=1;exitX=0.5;exitY=1;exitDx=0;exitDy=0;entryX=0.5;entryY=0;entryDx=0;entryDy=0;" edge="1" parent="89" source="23" target="24">
                    <mxGeometry relative="1" as="geometry"/>
                </mxCell>
                <mxCell id="84" value="" style="edgeStyle=orthogonalEdgeStyle;rounded=0;orthogonalLoop=1;jettySize=auto;html=1;" edge="1" parent="89" source="28" target="27">
                    <mxGeometry relative="1" as="geometry"/>
                </mxCell>
                <mxCell id="77" style="edgeStyle=orthogonalEdgeStyle;rounded=0;orthogonalLoop=1;jettySize=auto;html=1;exitX=0.5;exitY=1;exitDx=0;exitDy=0;entryX=0.5;entryY=0;entryDx=0;entryDy=0;" edge="1" parent="89" source="19" target="20">
                    <mxGeometry relative="1" as="geometry"/>
                </mxCell>
                <mxCell id="82" value="" style="edgeStyle=orthogonalEdgeStyle;rounded=0;orthogonalLoop=1;jettySize=auto;html=1;" edge="1" parent="89" source="24" target="25">
                    <mxGeometry relative="1" as="geometry"/>
                </mxCell>
                <mxCell id="83" value="" style="edgeStyle=orthogonalEdgeStyle;rounded=0;orthogonalLoop=1;jettySize=auto;html=1;" edge="1" parent="89" source="25" target="28">
                    <mxGeometry relative="1" as="geometry">
                        <Array as="points">
                            <mxPoint x="140" y="335"/>
                            <mxPoint x="140" y="145"/>
                        </Array>
                    </mxGeometry>
                </mxCell>
                <mxCell id="21" value="2.5 Participant API Call (12 hrs)" style="rounded=0;whiteSpace=wrap;html=1;fillColor=#66FFFF;" vertex="1" parent="1">
                    <mxGeometry x="330" y="870" width="120" height="60" as="geometry"/>
                </mxCell>
                <mxCell id="26" value="3.6 Researcher Thank You (4 hrs)" style="rounded=0;whiteSpace=wrap;html=1;fillColor=#9999FF;" vertex="1" parent="1">
                    <mxGeometry x="190" y="870" width="120" height="60" as="geometry"/>
                </mxCell>
                <mxCell id="29" value="3.7 Researcher Navigation Panel on Left (8 hrs)" style="rounded=0;whiteSpace=wrap;html=1;fillColor=#9999FF;" vertex="1" parent="1">
                    <mxGeometry x="190" y="960" width="120" height="60" as="geometry"/>
                </mxCell>
                <mxCell id="30" value="3.8 Researcher Links to Researcher Studies (12 hrs)" style="rounded=0;whiteSpace=wrap;html=1;fillColor=#9999FF;" vertex="1" parent="1">
                    <mxGeometry x="190" y="1060" width="120" height="60" as="geometry"/>
                </mxCell>
                <mxCell id="86" value="" style="edgeStyle=orthogonalEdgeStyle;rounded=0;orthogonalLoop=1;jettySize=auto;html=1;" edge="1" parent="1" source="26" target="29">
                    <mxGeometry relative="1" as="geometry"/>
                </mxCell>
                <mxCell id="87" value="" style="edgeStyle=orthogonalEdgeStyle;rounded=0;orthogonalLoop=1;jettySize=auto;html=1;" edge="1" parent="1" source="29" target="30">
                    <mxGeometry relative="1" as="geometry"/>
                </mxCell>
                <mxCell id="78" style="edgeStyle=orthogonalEdgeStyle;rounded=0;orthogonalLoop=1;jettySize=auto;html=1;exitX=0.5;exitY=1;exitDx=0;exitDy=0;entryX=0.5;entryY=0;entryDx=0;entryDy=0;" edge="1" parent="1" source="20" target="21">
                    <mxGeometry relative="1" as="geometry"/>
                </mxCell>
                <mxCell id="85" value="" style="edgeStyle=orthogonalEdgeStyle;rounded=0;orthogonalLoop=1;jettySize=auto;html=1;" edge="1" parent="1" source="27" target="26">
                    <mxGeometry relative="1" as="geometry"/>
                </mxCell>
                <mxCell id="90" value="Sprint 3 (68 hrs / 4 people)" style="swimlane;fillColor=#FF9999;" vertex="1" parent="1">
                    <mxGeometry x="30" y="820" width="720" height="320" as="geometry"/>
                </mxCell>
                <mxCell id="101" style="edgeStyle=orthogonalEdgeStyle;rounded=0;orthogonalLoop=1;jettySize=auto;html=1;exitX=0.5;exitY=1;exitDx=0;exitDy=0;entryX=0.5;entryY=0;entryDx=0;entryDy=0;" edge="1" parent="90" target="94">
                    <mxGeometry relative="1" as="geometry">
                        <mxPoint x="349.52941176470586" y="110" as="targetPoint"/>
                        <mxPoint x="360" y="100" as="sourcePoint"/>
                    </mxGeometry>
                </mxCell>
                <mxCell id="102" style="edgeStyle=orthogonalEdgeStyle;rounded=0;orthogonalLoop=1;jettySize=auto;html=1;exitX=0.5;exitY=1;exitDx=0;exitDy=0;entryX=0.5;entryY=0;entryDx=0;entryDy=0;" edge="1" parent="90" target="96">
                    <mxGeometry relative="1" as="geometry">
                        <mxPoint x="69.99999999999977" y="100" as="sourcePoint"/>
                    </mxGeometry>
                </mxCell>
                <mxCell id="103" style="edgeStyle=orthogonalEdgeStyle;rounded=0;orthogonalLoop=1;jettySize=auto;html=1;exitX=0.5;exitY=1;exitDx=0;exitDy=0;entryX=0.5;entryY=0;entryDx=0;entryDy=0;" edge="1" parent="90" target="97">
                    <mxGeometry relative="1" as="geometry">
                        <mxPoint x="69.99999999999977" y="195" as="sourcePoint"/>
                    </mxGeometry>
                </mxCell>
                <mxCell id="104" value="" style="edgeStyle=orthogonalEdgeStyle;rounded=0;orthogonalLoop=1;jettySize=auto;html=1;" edge="1" parent="90" target="98">
                    <mxGeometry relative="1" as="geometry">
                        <mxPoint x="220.00000000000023" y="195" as="sourcePoint"/>
                    </mxGeometry>
                </mxCell>
                <mxCell id="105" style="edgeStyle=orthogonalEdgeStyle;rounded=0;orthogonalLoop=1;jettySize=auto;html=1;exitX=0.5;exitY=1;exitDx=0;exitDy=0;entryX=0.5;entryY=0;entryDx=0;entryDy=0;" edge="1" parent="90" target="99">
                    <mxGeometry relative="1" as="geometry">
                        <mxPoint x="360" y="195" as="sourcePoint"/>
                    </mxGeometry>
                </mxCell>
                <mxCell id="106" value="" style="edgeStyle=orthogonalEdgeStyle;rounded=0;orthogonalLoop=1;jettySize=auto;html=1;" edge="1" parent="90" target="100">
                    <mxGeometry relative="1" as="geometry">
                        <mxPoint x="69.99999999999977" y="285" as="sourcePoint"/>
                    </mxGeometry>
                </mxCell>
                <mxCell id="107" value="" style="edgeStyle=orthogonalEdgeStyle;rounded=0;orthogonalLoop=1;jettySize=auto;html=1;" edge="1" parent="90" source="100">
                    <mxGeometry relative="1" as="geometry">
                        <Array as="points">
                            <mxPoint x="140" y="335"/>
                            <mxPoint x="140" y="145"/>
                        </Array>
                        <mxPoint x="160" y="145.0588235294117" as="targetPoint"/>
                    </mxGeometry>
                </mxCell>
                <mxCell id="32" value="4.1 Design/Implement Interface to display Nutrition Activity (4 hrs)" style="rounded=0;whiteSpace=wrap;html=1;fillColor=#FF66FF;" vertex="1" parent="90">
                    <mxGeometry x="300" y="140" width="120" height="60" as="geometry"/>
                </mxCell>
                <mxCell id="112" style="edgeStyle=orthogonalEdgeStyle;rounded=0;orthogonalLoop=1;jettySize=auto;html=1;exitX=0.5;exitY=1;exitDx=0;exitDy=0;entryX=0.5;entryY=0;entryDx=0;entryDy=0;" edge="1" parent="90" source="35" target="36">
                    <mxGeometry relative="1" as="geometry"/>
                </mxCell>
                <mxCell id="35" value="4.4 Design/Implement Interface to display Walking Activity (4 hrs)" style="rounded=0;whiteSpace=wrap;html=1;fillColor=#FF66FF;" vertex="1" parent="90">
                    <mxGeometry x="440" y="50" width="120" height="60" as="geometry"/>
                </mxCell>
                <mxCell id="36" value="4.5 Design/Implement Interface to enter Nutrition Activity (4 hrs)" style="rounded=0;whiteSpace=wrap;html=1;fillColor=#FF66FF;" vertex="1" parent="90">
                    <mxGeometry x="440" y="140" width="120" height="60" as="geometry"/>
                </mxCell>
                <mxCell id="115" style="edgeStyle=orthogonalEdgeStyle;rounded=0;orthogonalLoop=1;jettySize=auto;html=1;exitX=0.5;exitY=1;exitDx=0;exitDy=0;entryX=0.5;entryY=0;entryDx=0;entryDy=0;" edge="1" parent="90" source="38" target="39">
                    <mxGeometry relative="1" as="geometry"/>
                </mxCell>
                <mxCell id="38" value="4.7 Design/Implement Interface to display Running Activity (4 hrs)" style="rounded=0;whiteSpace=wrap;html=1;fillColor=#FF66FF;" vertex="1" parent="90">
                    <mxGeometry x="580" y="50" width="120" height="60" as="geometry"/>
                </mxCell>
                <mxCell id="39" value="4.8 Design/Implement Interface to enter Running Activity (4 hrs)" style="rounded=0;whiteSpace=wrap;html=1;fillColor=#FF66FF;" vertex="1" parent="90">
                    <mxGeometry x="580" y="140" width="120" height="60" as="geometry"/>
                </mxCell>
                <mxCell id="117" style="edgeStyle=orthogonalEdgeStyle;rounded=0;orthogonalLoop=1;jettySize=auto;html=1;exitX=0.5;exitY=1;exitDx=0;exitDy=0;entryX=0.5;entryY=0;entryDx=0;entryDy=0;" edge="1" parent="90" source="41" target="42">
                    <mxGeometry relative="1" as="geometry"/>
                </mxCell>
                <mxCell id="41" value="4.10 Design/Implement Interface to display Biking Activity (4 hrs)" style="rounded=0;whiteSpace=wrap;html=1;fillColor=#FF66FF;" vertex="1" parent="90">
                    <mxGeometry x="20" y="50" width="120" height="60" as="geometry"/>
                </mxCell>
                <mxCell id="118" style="edgeStyle=orthogonalEdgeStyle;rounded=0;orthogonalLoop=1;jettySize=auto;html=1;exitX=0.5;exitY=1;exitDx=0;exitDy=0;entryX=0.5;entryY=0;entryDx=0;entryDy=0;" edge="1" parent="90" source="42" target="43">
                    <mxGeometry relative="1" as="geometry"/>
                </mxCell>
                <mxCell id="42" value="4.11 Design/Implement Interface to enter Biking Activity (4 hrs)" style="rounded=0;whiteSpace=wrap;html=1;fillColor=#FF66FF;" vertex="1" parent="90">
                    <mxGeometry x="20" y="140" width="120" height="60" as="geometry"/>
                </mxCell>
                <mxCell id="43" value="4.12 Design/Implement Interface to modify Biking Activity (4 hrs)" style="rounded=0;whiteSpace=wrap;html=1;fillColor=#FF66FF;" vertex="1" parent="90">
                    <mxGeometry x="20" y="240" width="120" height="60" as="geometry"/>
                </mxCell>
            </root>
        </mxGraphModel>
    </diagram>
</mxfile>
